<svg xmlns="http://www.w3.org/2000/svg" viewBox="0 0 398.31 512"><defs><style>.cls-1{fill:#ed1c24;}</style></defs><g id="Layer_2" data-name="Layer 2"><g id="Layer_1-2" data-name="Layer 1"><path class="cls-1" d="M156.37,30.91h85.57V45.3h30.9V28.89A28.91,28.91,0,0,0,244,0H154.34a28.92,28.92,0,0,0-28.88,28.89V45.3h30.91Z"/><path class="cls-1" d="M344.21,167.75H54.1a13.61,13.61,0,0,0-13.57,14.71l24.26,299.9A32.2,32.2,0,0,0,96.88,512H301.43a32.21,32.21,0,0,0,32.09-29.64l24.25-299.9A13.6,13.6,0,0,0,344.21,167.75ZM124.35,480l-1,0A15.46,15.46,0,0,1,108,465.54L92.77,219.33a15.45,15.45,0,0,1,30.85-1.9l15.2,246.21A15.46,15.46,0,0,1,124.35,480Zm90.43-15.42a15.46,15.46,0,0,1-30.91,0V218.38a15.46,15.46,0,0,1,30.91,0Zm90.76-245.3L291,465.5A15.45,15.45,0,0,1,275.62,480l-.93,0a15.46,15.46,0,0,1-14.51-16.34l14.51-246.21a15.45,15.45,0,1,1,30.85,1.82Z"/><path class="cls-1" d="M397.65,120.06,387.5,89.64a19.65,19.65,0,0,0-18.64-13.43H29.45A19.65,19.65,0,0,0,10.81,89.64L.66,120.06a12.76,12.76,0,0,0,12.1,16.78H385.55a12.56,12.56,0,0,0,6.75-2A12.72,12.72,0,0,0,397.65,120.06Z"/></g></g></svg>