<svg xmlns="http://www.w3.org/2000/svg" viewBox="0 0 134.3 187.98"><defs><style>.cls-1{fill:#fff;}</style></defs><g id="Layer_2" data-name="Layer 2"><g id="Layer_1-2" data-name="Layer 1"><path class="cls-1" d="M82.65,13.49v161c0,7.45-6.94,13.49-15.5,13.49s-15.5-6-15.5-13.49v-161C51.65,6,58.59,0,67.15,0S82.65,6,82.65,13.49Z"/><path class="cls-1" d="M31,44.9v98.18c0,7.45-6.94,13.49-15.5,13.49S0,150.53,0,143.08V44.9c0-7.45,6.94-13.49,15.5-13.49S31,37.45,31,44.9Z"/><path class="cls-1" d="M134.3,44.9v98.18c0,7.45-6.94,13.49-15.5,13.49s-15.5-6-15.5-13.49V44.9c0-7.45,6.94-13.49,15.5-13.49S134.3,37.45,134.3,44.9Z"/></g></g></svg>